<svg xmlns="http://www.w3.org/2000/svg" viewBox="0 0 1280 1280"><g stroke-width="0"><path d="M635.2 258.7c3.7.2 10 .2 14 0 4-.1 1-.3-6.7-.3s-11 .1-7.3.3m-58.2 5.8c-7.4 1.7-3.2 1.7 5 0 3.6-.7 5.2-1.3 3.5-1.3-1.6 0-5.5.6-8.5 1.3m59.3 4.2c2 .2 5.4.2 7.5 0 2-.2.3-.4-3.8-.4s-5.8.2-3.7.4m-16.5 1c1.7.2 4.7.2 6.5 0 1.7-.2.3-.4-3.3-.4s-5 .2-3.2.4m41 0c1.7.2 4.7.2 6.5 0 1.7-.2.3-.4-3.3-.4s-5 .2-3.2.4m-60.3 1.3c-2.4.5-.7.6 4.5.3 4.7-.3 8.7-.7 8.9-.9.7-.7-9.2-.2-13.4.6m145 4c2.8 1 5.7 1.8 6.5 1.8s-.7-.8-3.5-1.8c-2.7-1-5.7-1.8-6.5-1.8s.8.8 3.5 1.8M527 277.7c-2.5.9-4 1.8-3.5 2 .6.1 3.3-.6 6-1.7 6-2.3 3.9-2.5-2.5-.3m191.5.4c3.9 1 7.7 1.8 8.5 1.8.8-.1-1.6-.9-5.5-2-3.8-1-7.7-1.8-8.5-1.8-.8.1 1.7.9 5.5 2m38.5.2c.3.3 5.1 2.4 10.8 4.6 5.7 2.3 13 5.5 16.2 7.1 3.3 1.7 6.3 3 6.7 3 1.4-.1-10.8-6.1-20.2-10-9.3-3.9-14.4-5.6-13.5-4.7m-240.5 3.3c-6.1 2.2-20.9 8.7-22 9.7-1.2 1 1.6 0 12-4.6 4.4-1.9 9.7-4 11.8-4.7 2-.6 3.7-1.3 3.7-1.6 0-.6-1.2-.4-5.5 1.2M793 294c.8.6 5.4 3 10.2 5.5 4.7 2.4 12.8 7 18 10.1 5.1 3.1 9.6 5.8 10.1 6.1.4.2.7.2.7-.1 0-1.2-37.5-22.6-39.7-22.6-.4 0-.1.5.7 1m-314 4.6c-11.4 6.1-31.8 18.8-35.5 22l-3 2.6 3.5-2.4c7.4-5.1 22-13.9 33.5-20.2 6.6-3.6 11.6-6.6 11-6.6-.5 0-4.8 2.1-9.5 4.6m300.5.6c7.4 3.8 12.5 6 12.5 5.3 0-.6-16.9-8.5-17.9-8.5-.3.1 2.1 1.5 5.4 3.2M460 301c-3 1.6-5 2.9-4.4 3 1.2 0 10.4-4.9 10.4-5.6 0-.6.1-.6-6 2.6m26.5 5.3c-63.7 33.2-115.5 85-147.3 147.4-4.5 8.8-8.2 16.5-8.2 17 0 .4 4-6.9 8.8-16.2 17.5-33.9 37.2-60.6 64.3-87 27.3-26.7 50.5-43.5 83.2-60.5 8.4-4.4 14.8-8 14.2-8-.5 0-7.3 3.3-15 7.3m310.5 1c0 .2 4.2 2.8 9.3 5.7 29.9 16.9 54.9 36.2 78.2 60.1 31.1 31.9 57.6 72.8 72.6 111.9 2.3 6.1 4.4 10.8 4.6 10.6.8-.8-9.2-24.6-16.3-38.7-28-55.4-70.2-101.8-123.4-135.6-10.2-6.4-25-14.8-25-14"/><path d="M835.4 318.2c1.6 1.3 7.5 5.7 13 9.8 15.6 11.4 26.9 21.3 40.6 35 28.6 28.5 50.2 58.7 67.7 94.5 9.5 19.5 11 21.4 2.6 3.3-12.6-27.3-32.6-58-52.3-80.3-13.8-15.7-39.4-39.8-52.7-49.5-5.7-4.2-22-15.2-18.9-12.8m-405.9 12.3c-35.2 26.6-68.1 63.5-89.8 100.5-5.9 10.1-18.7 35.3-18.7 36.7 0 .4 4.2-7.3 9.3-17.2 18.1-35 37.6-61.6 65.8-89.5 13.7-13.6 19.9-19 33.7-29.4 8.9-6.8 11-8.6 9.9-8.6-.1 0-4.7 3.4-10.2 7.5M883 344.7c3 2.9 5.8 5.2 6.3 5.3.4 0-1.2-1.7-3.5-3.7-7.2-6.3-8.7-7.1-2.8-1.6m-304.5-.2c-1.9 1.6-1.9 1.6.4.5 2.7-1.4 7.7-.6 10.9 1.6 2.2 1.5 6.3 8.7 8.8 15.4.7 1.9 1.3 2.8 1.3 2 .1-2.6-6.5-15.3-9.2-17.8-3.3-3.1-9.5-3.9-12.2-1.7m-8.3 9.2c-1.3 2.5-3.2 11.8-3.1 15.1 0 1.5.7-.5 1.4-4.3.7-3.9 1.8-8.2 2.4-9.8 1.2-3 .7-3.7-.7-1m9.4 6.2c-.9 1-1.9 3.6-2.1 5.7l-.5 3.9 1-3.9c1.3-5 2.9-6.9 5.2-6.3 1 .3 1.6.1 1.2-.4-.9-1.5-3-1-4.8 1m-3.2 19.1c0 5.2.1 7.4.3 4.7.2-2.6.2-6.8 0-9.5-.2-2.6-.3-.4-.3 4.8m-10.3-1.5c-.1 7.3 6.2 57.1 7.5 58.4.8.8.4-2.8-2.1-19-1.4-9-3.1-22.7-3.9-30.4-.7-7.7-1.4-11.8-1.5-9m226.4-3.5c-1.1.4-2.8 2.3-3.9 4.1l-1.9 3.4 2.9-3.2c1.6-1.7 3.8-3.6 4.9-4.2 2.3-1.2.9-1.3-2-.1m-189.9 13.6c.4 6.5.9 12.1 1.2 12.4.2.3.2-4.8-.1-11.4-.4-6.5-.9-12.1-1.2-12.4s-.2 4.8.1 11.4m-237.5-7.4c-6.1 7.5-13 16.9-10 13.6 4.7-5.1 13.1-15.9 12.7-16.2-.1-.2-1.4 1-2.7 2.6m555.1 2.8c2.5 3 7.3 9.3 10.7 14 11.7 16 14.3 19.2 11.5 14.5-3-5.1-17.9-24.7-22.4-29.5l-4.2-4.5zm-326.5 5c.3 3.6.7 6.7.9 6.9.7.8.2-7.3-.6-10.4-.5-1.9-.6-.6-.3 3.5m212.8 5.5c-2 2.5-3.4 5.1-3.2 5.8.4.7.6.6.6-.4.1-.9.8-2.2 1.6-2.9 1.8-1.5 5.9-7 5.2-7-.3 0-2.1 2-4.2 4.5m-460.2 10.9c-5.4 7.3-8.7 12.6-7.9 12.6.3 0 2.5-3.1 5-6.9 2.5-3.9 5.4-7.9 6.6-9.1s1.9-2.4 1.7-2.7c-.3-.3-2.8 2.5-5.4 6.1m294.2 7.6c3.9 1 7.5 1.9 8 1.9 2.2-.1-6.4-2.7-10.5-3.3-3.4-.4-2.7-.1 2.5 1.4m-80.5-.1c-1.4.5-5.1 1.6-8.4 2.6-18.7 5.5-31.5 15.6-36.6 29.2-1.8 4.7-2.1 7.2-1.7 13.3.5 7 2.4 15.7 3.2 14.8.3-.2-.2-2.8-1-5.8-5.1-19 3.8-36 23.9-45.8 5.7-2.7 9-3.9 22.1-7.6 2.8-.8 4.1-1.4 3-1.4s-3.1.3-4.5.7m78.5 5.5c32.7 11 52.4 26.3 61 47.2 1.4 3.3 2.5 5.2 2.5 4.3 0-3.4-8.1-17.7-13.4-23.5-6.8-7.5-17.8-15.2-29.9-20.9-9.9-4.7-25.8-10.5-28.5-10.5-.9 0 2.8 1.6 8.3 3.4"/><path d="M659 417.9c13 5.2 18.4 8.1 25.5 13.3 13.2 9.8 22.8 21.8 26.6 33.2 1.2 3.8 1.8 4.8 1.4 2.6-.8-5.8-7.1-17.1-13-23.7-10-11.1-24.4-20.5-41.1-26.8-10.4-3.9-10-2.9.6 1.4m136.3-3.2c2.6.2 6.8.2 9.5 0 2.6-.2.4-.3-4.8-.3s-7.4.1-4.7.3M605.4 425c0 5.2.1 7.4.3 4.7.2-2.6.2-6.8 0-9.5-.2-2.6-.3-.4-.3 4.8m217 4.5c0 5.5.1 7.6.3 4.7s.2-7.4 0-10-.3-.2-.3 5.3m-488.6-6.3c-2.1 3.2-4.9 8.8-4.5 8.8.7 0 6.8-10.2 6.4-10.7-.2-.2-1.1.7-1.9 1.9m209 .7c-3.2 1.6-7.9 4.7-10.5 6.8-4.4 3.6-10.3 11.5-10.3 13.7 0 .5 1.3-1 2.8-3.5 3.7-5.8 12-13 18.8-16.3 3-1.5 5.4-2.9 5.4-3.1 0-.7 0-.7-6.2 2.4m288.5 3.1c0 3.6.2 5 .4 3.2.2-1.7.2-4.7 0-6.5-.2-1.7-.4-.3-.4 3.3m-57 4c0 3.6.2 5 .4 3.2.2-1.7.2-4.7 0-6.5-.2-1.7-.4-.3-.4 3.3m-8.3 0c0 5.9-3.2 14.8-6.7 19-3.4 4.1-10.2 8.7-17.1 11.6-3.1 1.3-5.2 2.3-4.5 2.4 2.6 0 12.5-5.1 17.8-9.2 6.7-5.2 10.7-13.1 11.3-22.6.2-3.4.2-6.2-.2-6.2-.3 0-.6 2.2-.6 5m-441.9 9c-1.8 3.4-3 6.4-2.7 6.7.3.4.6.2.6-.4 0-.5 1.4-3.1 3.1-5.6 1.7-2.6 2.9-5.1 2.7-5.7s-1.8 1.7-3.7 5m250.1-1c0 1.4.3 4.5.7 7 .6 3.4.9 3.7.9 1.5.1-1.7-.3-4.8-.7-7-.6-2.5-.9-3.1-.9-1.5m32.2 7.5c0 4.9.1 7.1.3 4.8s.2-6.4 0-9-.3-.8-.3 4.2m353.5-5.3c1.3 3.3 7.1 13.5 7.1 12.5s-6.9-14.7-7.5-14.7c-.2 0-.1 1 .4 2.2M823.6 443c.7 3.8 6.5 13.4 9.8 16.4 5.2 4.5 8.8 6.8 14.6 9.2 3.4 1.4 6.4 2.3 6.6 2.1s-2.6-1.6-6.4-3.1c-11.2-4.6-18.3-11.5-22.8-22.3-1.9-4.4-2.3-4.9-1.8-2.3m13 3c2.6 4.2 10.2 9.6 19.1 13.4 7.4 3.2 15.7 6 10.8 3.7-1.1-.6-6-2.7-11-4.8-7.1-2.9-10.2-4.9-14.8-9.4-3.8-3.8-5.2-4.8-4.1-2.9m-520.9 10.5c-2 4.1-3.5 7.5-3.2 7.5.7 0 7.7-14.1 7.3-14.6-.2-.2-2.1 3-4.1 7.1m204.4-1.9c.1 2.7.5 6 .9 7.4.5 1.5.6-.4.3-4.5-.7-8.2-1.3-9.9-1.2-2.9m56-1.4c-.1 2.4 1.7 16.4 5.4 41.8 2.8 18.7 3.3 21.5 3.4 19 0-1.4-.9-9.3-2-17.5-4.5-31.7-6.7-45.9-6.8-43.3"/><path d="M764.5 456.1c-7.4 7.6-22.7 13.2-36.7 13.3-4.2.1-7.4.5-7.1 1 .9 1.4 16.5-.2 23.9-2.5 9.8-3 15.2-6.1 20.4-11.3 2.4-2.5 4.2-4.6 3.9-4.6s-2.3 1.8-4.4 4.1m205.7 5.4c1.8 3.5 3.4 6.3 3.6 6.1.4-.5-5.6-12.6-6.3-12.6-.3 0 1 2.9 2.7 6.5M607.4 466c0 5.8.1 8.1.3 5.2.2-2.8.2-7.6 0-10.5-.2-2.8-.3-.5-.3 5.3m-296.7.7c-.2 1-1.6 4.4-3.1 7.5-1.4 3.2-2.2 5.8-1.8 5.8.9 0 6.6-14 5.9-14.6-.2-.3-.7.3-1 1.3m93.3-.7 27.4.5 13.2 21.3c7.2 11.6 14.9 24 17.1 27.5 2.2 3.4 9.6 15.1 16.4 26 21 33.5 37.8 59.9 47.8 75.1 2.8 4.4 4.8 8.2 4.4 8.6-.5.4-2.9 2.4-5.5 4.4-2.6 2.1-4.6 4.2-4.3 4.6.2.4-.5 1.6-1.8 2.6l-2.2 1.9 1.9-2.3c1.1-1.2 1.5-2.2.9-2.2-1.5 0-6.4 5.6-5.6 6.4.4.4.1.4-.8.1s-2.8.8-4.9 3c-1.9 1.9-3.7 3.5-4.1 3.5s-1.8-1.7-3-3.8c-1.2-2-9.1-14.7-17.5-28.2-18.3-29.7-43.4-70.6-52.2-85.3-3.5-6-6.6-10.6-6.8-10.4-.4.4 6.6 12.1 31.1 52.2 5.4 8.8 12.5 20.5 15.8 26 3.4 5.5 8.8 14.3 12.2 19.5s7.6 12 9.3 15c4.8 8.1 5.5 9.2 7.9 12.7 1.3 1.7 2.3 3.8 2.3 4.6 0 .7-3 4-6.7 7.3-3.7 3.2-13.8 12.4-22.3 20.4s-22.9 21.3-32 29.4c-9.1 8.2-16.9 15.8-17.4 17.1-1 2.5-.3 6.1 1.7 8.9 1.3 1.8 2.7 1 25.3-14.9 13.1-9.3 33.5-23.8 45.1-32.3 11.7-8.4 21.7-15 22.3-14.7.6.4.8 1 .5 1.5-.4.7 16.9 33.1 19.5 36.5.4.5 4.3 8 8.7 16.5 13 24.9 13.6 26.1 14.1 25.6.5-.6-14.8-29.6-30.4-57.7-5.7-10.2-10.4-19.1-10.4-19.7s4.4-4.1 9.8-7.8c5.3-3.7 11.3-8 13.3-9.5l3.7-2.8 12.1 19.7c13.7 22.4 14.7 24 12.5 19.4-.8-1.9-4.5-8.2-8.1-14-3.7-5.9-8.8-14.4-11.5-19-2.7-4.5-5.3-8-5.9-7.7-.5.4-.9.3-.9 0 0-1 3.7-4 13.5-10.6 5-3.4 14.4-9.9 21-14.4 16.7-11.4 21.5-14.4 19.1-11.7-1.8 2-1.8 2.8-.7 12.4 1.4 12.2 5.8 39.2 6 36.3 0-1.1-.6-6.3-1.4-11.5-2-12.6-4.5-31-4.5-33 0-.9 2.8-3.2 6.5-5.4 3.6-2.1 6.5-4.4 6.5-5.3 0-.8.4-1.2.9-.9s1.4 6.3 2 13.3c.6 7.1 1.5 16.6 2 21.3.9 8 .9 7.8.4-3-.6-12.5-2.6-30.6-3.6-33-.5-1.1 4.6-5 19.9-15 11.4-7.4 25.2-16.8 30.7-20.9 10.6-7.8 25.5-21.5 28.9-26.6 1.2-1.6-1.5.9-6 5.6-11 11.7-22 19.9-60.7 45.3-18.1 11.9-37.7 24.9-43.4 28.8-5.8 4-16.1 11.1-23 15.9-15.2 10.3-39.4 27.3-67.3 47.5-57.3 41.2-65.1 46.6-65.9 45.3-1.6-2.7-2-8-.7-9.6.7-.9 4.5-4.3 8.3-7.6 8.4-7.2 24.6-22 37-33.8 16.6-15.8 36.9-34.3 45.3-41.2 4.5-3.8 7.9-7.4 7.5-7.9-.4-.7-.1-.8.6-.3.8.4 2.3-.3 3.9-1.7 7.9-7.3 29.8-22.5 66.5-46.2 5.9-3.8 10.4-7.3 10-7.9-.3-.6-.1-.7.5-.3 1.4.8 39-22.2 55-33.7 13.8-9.9 24.1-19 30.6-27.1 5.2-6.4 11.1-17.7 10.4-19.8-.3-.7-1.2.9-2.1 3.7-4.1 12-15 24.1-36.2 40-11.6 8.8-48.4 31.9-49.3 31.1-.3-.3-1.1.2-1.9 1.2-.8.9-1.2 1.1-.8.4.3-.6.3-1.2 0-1.2-1.6 0-15.2 9.5-17.2 11.9-1.2 1.5-6.4 5.4-11.5 8.6-16.7 10.6-36 23.8-46.1 31.7-2.1 1.7-3.9 2.8-4.1 2.7-3.9-5.5-23.1-35.7-53.6-84.2-6.9-10.9-14.3-22.6-16.5-26.1-2.2-3.4-10.1-16-17.5-27.9L431.6 465l-27.6.2-27.5.3zm-84.9 5.1c-6.1 15.7-8.2 21.2-7.8 21.5.2.2 2.4-4.9 4.9-11.4 2.6-6.4 4.5-11.9 4.3-12.1-.3-.2-.9.7-1.4 2"/><path d="M523 469.3c0 .4 1.1 3 2.5 5.7 4.6 9.1 17.7 20.5 31.2 27.4 8 4 7.7 3.1-.4-1.4-14.5-7.8-24.9-17.1-30.1-26.8-1.8-3.1-3.2-5.3-3.2-4.9M385.2 473c7.4 3.9 12.4 8.9 15.7 15.9l2.6 5.6v45.2c0 24.9.4 44.8.8 44.4.5-.5.7-20.8.5-45.2-.4-50.7-.4-50.4-8.9-59.1-4.1-4-13.4-9.9-15.6-9.8-.4.1 1.8 1.4 4.9 3m496.8-2.8c.3.4 3.9 2.9 8.1 5.7 11.3 7.5 13.9 12.4 17.2 31.1.2 1.4.2-.4 0-4-1-13.6-7.8-23.7-20.4-30.4-2.9-1.6-5.2-2.7-4.9-2.4M702.7 478c.3 4.1.7 7.7.9 7.9.7.8.2-9.4-.6-12.4-.5-1.8-.6.1-.3 4.5m53.3-6.4c8.1.8 27.8.8 27.3.1-.2-.4-7.3-.6-15.6-.5-8.4.1-13.6.3-11.7.4m-428.8 7.6c-3.7 9-10.2 27.6-10.1 29.1 0 .7 2.2-4.9 4.8-12.3 2.7-7.4 5.8-15.7 7-18.4s2-5.1 1.8-5.3-1.8 2.9-3.5 6.9m190.5-4.5c1.2 3.5 9.7 13.9 15 18.3 2.9 2.5 7.7 5.8 10.6 7.4 6.9 3.9 5.9 2.9-3.5-3.3-8.3-5.6-16.8-14.2-19.9-20.2-2-4-3.3-5.2-2.2-2.2m217.8-1c-3 .7-15.6 6.5-15.1 7 .2.2 2.7-.7 5.5-2.2 2.8-1.4 7.7-3.2 10.9-3.9 3.1-.8 4.6-1.4 3.2-1.4s-3.4.2-4.5.5m240.6 0c-.1 1.7 5 14.5 5.6 14 .2-.3-1-3.8-2.6-7.8-1.7-4.1-3-6.8-3-6.2M768.3 479c-4.2 2.8-6.7 5.4-8.6 8.8-3.7 6.8-3.4 7.9.4 1.4 3.2-5.5 7.1-9 13.5-12.2 2.2-1.1 3.2-1.9 2.3-2-.9 0-4.3 1.8-7.6 4m197.3-2.5c.4 1.1 2.9 8.1 5.6 15.5 4.9 13.1 13.7 42.4 13.9 45.8 0 .9.3 1.2.5.6 1.1-2.8-12.4-46.6-18-58.4-1.5-3-2.3-4.6-2-3.5M873 478c0 .5-1.4 1.7-3 2.5-3.7 1.9-10.9 11.4-14.6 19.3-3.6 7.7-4.6 22.7-1.9 30 1.8 4.8 6.3 10.5 10 12.4 2.8 1.6 8.6 2.8 7.9 1.7-.3-.5-1.5-.9-2.8-.9-3.1 0-8.6-3.8-11.3-7.9-3.2-4.7-4.3-9.4-4.3-17.9 0-13.2 5.6-25.1 16.3-34.7 3.4-3 5.6-5.5 5-5.5-.7 0-1.3.4-1.3 1m-264.4 20.5c.3 8.8 1.2 25.9 2 37.9.8 12.1 1.4 23.1 1.4 24.4 0 1.4.3 2.3.6 1.9.5-.5-1.3-36-3.6-67.7l-.8-12.5zm-308.4-6c-1.7 4.7-3.2 9.1-3.2 9.8.1.6 1.6-2.9 3.5-7.8 1.9-5 3.4-9.4 3.2-9.8-.1-.4-1.7 3.1-3.5 7.8"/><path d="M874.2 488.4c-8.5 6.3-12.4 14.3-13 26.5-.6 12.6 2.6 18.7 11 21.2 1.7.5 2.6.4 2.3-.2-.4-.5-1.4-.9-2.3-.9-2.8 0-6.1-2.8-8.3-7.2-3-5.9-2.4-18.9 1.3-26.9 3.6-7.9 11.4-14.8 16.8-14.9 2 0 2.2-.2 1-1-2.2-1.4-2.2-1.4-8.8 3.4m19.3 2c6.7 10.4 5.9 24-2.2 35.6-2.4 3.3-5.5 6.2-8.2 7.7-2.4 1.3-3.8 2.3-3 2.3 1.9 0 7.8-3.7 10.1-6.3 1.1-1.2 3.3-5 5-8.5 5.3-11 4.8-24.4-1.3-31.3l-2.9-3.4zm-586.8 14.8c-3.5 11-6 20.7-3.8 14.8 2.4-6.4 8.1-25.3 7.8-25.7-.3-.2-2 4.7-4 10.9m677.3-9.6c.1 1.5 7.9 23 7.9 21.8.1-.5-1.5-5.7-3.4-11.4-3.2-9.5-4.6-12.7-4.5-10.4m-261.2 61.6.3 61.6-2.3-.4c-2.1-.4-2.1-.4-.3.5 1.1.5 2.3 1 2.8 1 .9.1.8-113.7-.1-119.9-.4-2.5-.6 23.3-.4 57.2M962.3 498c5.4 18.1 9.2 29.9 9.5 29.2.3-1.1-7.6-27.2-8.9-29.2-.9-1.3-1-1.3-.6 0m-252.5 6.7c-5.3 14.6-20.2 31.7-39.5 45.3-5.1 3.5-9.1 6.6-8.9 6.7.6.6 17.1-8.4 17.1-9.3 0-.5 4.5-5.4 10.1-10.9 5.5-5.5 11.5-12.1 13.2-14.8 4-5.8 10.5-19.2 10-20.7-.2-.6-1.1 1.1-2 3.7m45.7 32.8c0 20.3.1 28.5.2 18.2.2-10.4.2-27 0-37-.1-10-.2-1.6-.2 18.8m-206-33.7c1.1 1.2 11.7 5.4 12.2 4.8.2-.2-2-1.3-4.9-2.5-7.9-3.4-8.4-3.5-7.3-2.3m-256.9 11.8c-3.9 13.5-4 14-3.3 13.3 1-.8 6.8-21 6.5-22.1-.2-.6-1.6 3.4-3.2 8.8m512.2-4.6c1.5 1.8 1.6 6.2 0 7.8-1.7 1.7-4.8 1.5-7-.5s-2.4-1.1-.2 1.1c3.5 3.5 9.4.6 9.4-4.6 0-1.4-.8-3.2-1.7-3.9-1.5-1.1-1.6-1.1-.5.1m-385.3 99c0 52.5.1 74 .2 47.7.2-26.2.2-69.2 0-95.5-.1-26.2-.2-4.7-.2 47.8M585 517.6c-.1 3 4.5 36.5 4.8 35.6.4-1.3-3.7-35.4-4.4-36.1-.2-.2-.4 0-.4.5m318.7 4.4c-2 5.6-10.3 20.5-19.6 35.2-19.4 30.8-30.9 58.8-31.5 76.8-.2 4.7-.2 6.5 0 4 1.9-23.3 12.1-47.8 36.1-86.5 8-12.9 14.8-25.4 16.2-29.8 1.9-5.7.8-5.4-1.2.3m88.8-.2c1.1 5.3 4.3 15.8 4.4 14.5.1-1.6-3.9-16.6-4.6-17.3-.3-.3-.2 1 .2 2.8m-20.4 8.2c0 .8.8 4.6 1.8 8.5 1.1 3.8 1.9 6.3 2 5.5 0-.8-.8-4.7-1.8-8.5-1.1-3.9-1.9-6.3-2-5.5m-684.1.2c0 .3-1.1 5.9-2.5 12.4-2.4 11.3-3.3 18.8-1.4 11.4 1.9-7.3 4.9-23.4 4.4-23.8-.3-.3-.5-.3-.5 0m9.5 7.3c-1 4.2-1.5 7.8-1.3 8 .3.3 1.2-3 2.1-7.2s1.5-7.8 1.3-8.1c-.2-.2-1.2 3.1-2.1 7.3"/><path d="M693.5 535.1c-2.7 2.7-7.1 6.4-9.7 8.1-2.7 1.7-4.6 3.3-4.4 3.5.8.8 8.1-4.5 14.6-10.6 3.6-3.3 6.1-6 5.5-6-.5.1-3.2 2.4-6 5m-387.3 14.6c-1.2 6-2.4 13.5-2.6 16.8l-.5 6 1-6c.5-3.3 1.9-10.7 3-16.3 1.1-5.7 1.9-10.6 1.6-10.8-.2-.2-1.4 4.4-2.5 10.3m680-8.7c-.1.8 1 6.4 2.3 12.5 1.4 6 2.3 8.7 2 6-.6-5.3-4.2-21.1-4.3-18.5m-188.6 2.6c-1.9 1.8-2.1 6.5-.4 8.2 1.9 1.9 3.3 1.4 1.5-.6-3.2-3.6-1.5-8.2 3-8.2 4.6 0 5.8 7.1 1.6 9.4-1.6.8-2.3 1.5-1.8 1.6 2.2 0 5.5-3.2 5.5-5.3 0-5.5-5.9-8.7-9.4-5.1m81.4-.5c-3.1.6-3.2.7-.7.8 1.5 0 2.7.4 2.7.7 0 .4-2.8 5.2-6.2 10.8-7.2 11.8-7.1 11.6-6.4 11.6s15-24 14.5-24.3c-.2-.2-2 0-3.9.4m-584.9 11.5c-.7 4.1-1.1 7.8-.8 8 .2.3 1-3 1.6-7.2.7-4.1 1.1-7.8.8-8-.2-.3-1 3-1.6 7.2m683.1-2.1c-.1 1.1.5 4.9 1.3 8.5.7 3.6 1.3 5.4 1.4 4 0-1.4-.6-5.2-1.3-8.5-.8-3.3-1.4-5.1-1.4-4m-387.1 4.2c-.1 2.9 2.9 23.6 3.6 24.3.6.6-.5-8.5-2.2-19-.7-4.1-1.3-6.5-1.4-5.3m401.1 9.8c-.1 1.1.5 6.5 1.3 12l1.4 10-.5-8c-.6-8-2.1-17.8-2.2-14m-130 11.7c-22 38.7-27 66.7-17.1 95.7 1.6 4.7 3.6 9.2 4.5 10 1.4 1.4 1.4 1.2-.1-1.8-3.6-7.1-6.6-17.9-7.7-27.4-2.2-19.9 2.7-40.2 16.2-66.5 7.9-15.1 9.9-20 4.2-10m-63.6-2.6c-2.3 2.3-1.9 3 .4.9 3.1-2.8 7.4-1 7.8 3.3.3 2.6-.1 3.4-2 4.1-1.4.6-1.7 1-.7 1 4.2.2 5.4-6.7 1.7-9.3-2.9-2-5.2-2-7.2 0m-519 9.6c-.9 11.4-1.9 54.4-1.2 53.7.3-.3.8-8.9 1-19 .3-10.1.8-23.7 1.2-30.2.8-12.7.1-16.2-1-4.5m22.1 3.2c-.4 4.3-.6 11.3-.6 15.5.2 5.4.4 3.5 1-6.9.9-15.8.6-21.3-.4-8.6M403 617.2c-.3 17.4-.2 31.4.3 30.9.4-.4.6-14.7.5-31.7l-.3-30.9zm591.3-21.7c0 3.8.2 5.3.4 3.2.2-2 .2-5.2 0-7-.2-1.7-.4-.1-.4 3.8m-705 3.5c0 4.7.2 6.6.4 4.2.2-2.3.2-6.1 0-8.5-.2-2.3-.4-.4-.4 4.3m694.1 17c0 11.3.2 15.9.3 10.2.2-5.6.2-14.8 0-20.5-.1-5.6-.3-1-.3 10.3m12 0c0 6.9.1 9.7.3 6.2.2-3.4.2-9 0-12.5-.2-3.4-.3-.6-.3 6.3m-197.6-8.3c-.8 1-1.8 2.5-2.2 3.3s.2.3 1.4-1.3c2.3-2.9 5.7-3.5 8-1.5 1.2 1.1 1.2 1 .1-.5-.7-.9-2.3-1.7-3.6-1.7-1.2 0-2.9.8-3.7 1.7m-41.6 14.9c-.2 12.4-.1 13.2 2.1 15.1 1.2 1.1 2.9 2.3 3.7 2.7s0-.5-1.7-2.1l-3.3-2.8-.3-13-.3-13zm-72.1-11.2c.2.2 3.8.6 7.9.9 4.6.3 6.3.2 4.5-.3-3-.8-13.2-1.3-12.4-.6m-28.6 2.1c-5.3 1.7-3.4 1.8 3.5 0 3-.7 4.4-1.3 3-1.3s-4.3.5-6.5 1.3m51.4 1.5c4.1 1.1 7.6 1.8 7.9 1.6.5-.6-6.3-2.5-11.3-3.1-2.2-.3-.7.3 3.4 1.5"/><path d="M643.5 616.9c-6.3 2.3-17.4 7.8-19.7 9.9-1.5 1.3-1.8 3-1.6 10.6l.2 9.1.5-9.4.6-9.5 3.5-2c1.9-1.2 8.2-4 14-6.3 10.4-4.2 12.1-5.8 2.5-2.4M300.4 633c0 5.2.1 7.4.3 4.7.2-2.6.2-6.8 0-9.5-.2-2.6-.3-.4-.3 4.8m361.1-2.1c-1.6.4 3.8.5 12 .3 19.3-.4 21.8-1 4.5-1-7.4 0-14.8.3-16.5.7m332.8 7.1c0 4.7.2 6.6.4 4.2.2-2.3.2-6.1 0-8.5-.2-2.3-.4-.4-.4 4.3m-705 2c0 4.7.2 6.6.4 4.2.2-2.3.2-6.1 0-8.5-.2-2.3-.4-.4-.4 4.3"/><path d="M647.3 634.4c-7.8 2.6-23.3 9.5-23.3 10.5 0 .4 3.9-1.2 8.8-3.6 4.8-2.3 12.5-5.3 17.2-6.7s7.6-2.5 6.5-2.5-5.2 1-9.2 2.3m65.1 2.2c3.8 1.3 7.1 2.2 7.3 2 .5-.5-11.6-4.6-13.1-4.5-.6 0 2 1.1 5.8 2.5m269.9 6.9c0 3.8.2 5.3.4 3.2.2-2 .2-5.2 0-7-.2-1.7-.4-.1-.4 3.8m-184.6-3.7c-2.2 2.4-2.1 6.5.1 8.5 3.9 3.5 9.2 1 9.2-4.2 0-5.3-6-8-9.3-4.3m7.1.4c.7.7 1.2 2.4 1.2 3.8 0 4.7-4.9 6.8-7.6 3.2-2.8-3.6-1.1-8.2 3.1-8.2 1.2 0 2.6.5 3.3 1.2m-83 .1c.6.7 1.2 3.7 1.5 6.7l.3 5.5.2-6.1c.2-4.9-.1-6.3-1.4-6.8s-1.4-.3-.6.7m-443.5 8.2c-.1 3.3.3 8.7.7 12l.7 6v-5c0-2.8-.3-8.2-.7-12l-.7-7zm22.9 0c0 2.2.3 6.2.8 9 .6 4 .7 4.3.8 1.5 0-1.9-.3-6-.8-9-.6-4.8-.7-5-.8-1.5m550.9 2.5c0 2.5.6 7.3 1.4 10.5 1.7 6.6 9.1 21.8 14.9 30.5 5.5 8.3 12.4 22.1 16.7 33.4 2.1 5.5 3.9 9.5 3.9 8.7 0-2.3-8.7-23.4-12.5-30.1-1.9-3.4-3.5-6.4-3.5-6.6s-2-3.4-4.4-7.1c-5.6-8.8-12.1-21.7-13.6-27.2-.6-2.4-1.5-7.1-1.9-10.5-.8-5.8-.9-5.9-1-1.6m-75.1 1.1c2.5 2.4 7.5 7.1 11 10.4 15.9 14.7 32.3 33.7 45.3 52.5 8.7 12.6 11.1 16.5 19.9 33.5 3.7 7.1 6.8 12.7 6.8 12.4.1-2.7-16.3-32.7-24.2-44.5-5.7-8.4-17.9-24.2-22.8-29.4-.8-.9-4.9-5.3-9-9.9s-12.9-13-19.5-18.8-10-8.6-7.5-6.2m-486.9 1c0 2.4.4 6.4.9 8.9.6 3.3.7 2.2.3-4-.6-9.1-1.3-12.2-1.2-4.9M402.2 690c-.2 20.1-.4 38.7-.6 41.5-.3 3.8-.2 4.4.5 2.6.5-1.3.8-19.9.6-41.5l-.2-39.1zm192-30.8c-6.6 9.9-18.2 29.8-18.2 31.5 0 .4 4-6.1 8.8-14.4 4.9-8.3 9.9-16.4 11.1-18.2 1.2-1.7 2-3.1 1.7-3.1s-1.8 1.9-3.4 4.2m4.9-.7c.1 1.6.5 4.1.9 5.5.7 2.2.8 2 .9-1.5 0-2.2-.4-4.7-.9-5.5-.7-1.1-.9-.8-.9 1.5m157.1 33.7.3 36.3.2-35.7c.3-33.4.4-35.7 2.1-35.2 1.4.5 1.5.4.2-.5-.8-.6-1.8-1.1-2.2-1.1-.5 0-.7 16.3-.6 36.2m235.4-28.3c-.4 3.5-.5 6.5-.2 6.8.6.7 1.9-10.3 1.4-11.9-.3-.7-.8 1.6-1.2 5.1m-218.6 3c1.4 1.3 7.1 6.4 12.8 11.3 30 26.5 56.5 59.6 72.2 90.1 3.5 6.9 6.6 12.5 6.8 12.3.4-.4-7.4-16.3-11.5-23.4-14.9-25.9-43.2-59.5-67.3-80-12.3-10.4-18.1-15-13-10.3m-153.8 3.6c0 3.3.6 14.1 1.3 24l1.4 18-.6-15c-.6-18.9-2-36-2.1-27m-14.1-2c0 1.1 1.3 12.3 2.9 25 1.6 12.6 3.3 25.4 3.6 28.3.4 2.9.9 5 1.1 4.8.3-.3-.7-10.5-2.2-22.8-2.6-22.2-5.2-39.1-5.4-35.3m-301 3.9c-.1 2.3 4.5 24.9 5.9 29.1 1 3 1 2.9.4-.5-1.5-8.9-6.2-30.3-6.3-28.6m75 .2c-10.4 1.9-17.8 4.5-26.3 9.5-12.4 7.2-21.8 18.5-23.3 27.9-.5 3.2-.4 3.2.9-.7 3.7-11.1 13.2-21.3 26.2-28 9.7-5 15.8-6.9 29.4-8.7 7.1-.9 8.9-1.4 5.5-1.4-2.7 0-8.3.6-12.4 1.4m-98 5.5c.1 1.9.5 4.7 1 6.4.5 2 .6.9.2-3-.6-6.6-1.4-8.8-1.2-3.4m12-1.9c-.2 3.2 5.9 31.1 6.7 30.4.2-.3-.5-4.5-1.6-9.3-1.2-4.8-2.8-12-3.6-15.8-.8-3.9-1.4-6.2-1.5-5.3"/><path d="M375.5 678.4c-15.1 4.8-27.5 13.7-33 23.8-2.7 4.7-3 6.2-3 13.8 0 6.9.5 9.3 2.3 12.8 5.4 10.1 15.1 15.8 28.5 16.7l7.2.4-7-1c-10.3-1.4-15.8-3.5-21-8.1-7.1-6.2-9-10.6-9-20.8 0-8 .2-8.9 3.5-14.4 6.2-10.4 18.8-18.7 34.9-23.1 4.7-1.3 7.5-2.3 6.1-2.3s-5.6 1-9.5 2.2m220.2 5.3c-3.8 6.3-11.9 23.4-11.4 24 .2.2 2.7-4.5 5.5-10.4 2.8-6 6.3-12.7 7.8-15.1 1.4-2.3 2.4-4.2 2.1-4.2s-2.1 2.6-4 5.7m392.4.9c-.6 3.7-1 6.8-.8 7.1.3.2 1-2.6 1.7-6.2s1-6.8.8-7c-.3-.3-1 2.5-1.7 6.1m-13.4 6.4c-.9 4.6-1.5 8.6-1.2 8.8.6.6 3.7-14.6 3.3-15.9-.2-.7-1.2 2.5-2.1 7.1M850 686.4c0 .5 2.7 5.2 5.9 10.5 19.3 31.5 27 57.9 25.9 89.4-.4 12.1-.3 13.8.4 8.2.5-3.9.7-13.1.4-20.5-.8-21.5-5.8-39.4-17.4-62.6-5-9.9-15.2-26.7-15.2-25m-567 2.4c0 4.9 9 41.5 10.6 43.1.8.9.4-1.2-2.5-11.3-1.6-5.5-3.9-15.1-5.1-21.1-2-10.1-3-13.6-3-10.7M723.8 733c-.4 21.9-1 36.9-1.7 39.2-2.2 7.1-8.6 12.5-18.6 15.9-2.7 1-4.1 1.8-3 1.8 2.6.1 10.9-3.9 16.1-7.7 7.2-5.3 7.6-7.6 8.1-45.7.3-18.2.3-34.4.1-36-.2-1.7-.6 13-1 32.5m246.8-25.4c-.9 3.7-1.5 6.8-1.3 7.1.3.2 1.2-2.6 2.1-6.3s1.5-6.8 1.3-7.1c-.3-.2-1.2 2.6-2.1 6.3m-550 21.9c.3 13.2.9 26.2 1.4 29 .7 4.1.8 3.6.3-3-.3-4.4-.9-17.5-1.4-29l-.7-21zM300.7 711c.7 4.5 7.3 25.3 7.8 24.8.3-.3-2.8-10.9-7.3-24.8l-1.1-3.5zm277.5 9.2c-2.9 6.1-5.1 11.3-4.9 11.5s2.7-4.7 5.6-10.8c2.8-6.2 5-11.3 4.8-11.5s-2.7 4.6-5.5 10.8m-265.1-7.9c-.2 1.4 3 11.9 3.5 11.4.2-.2-.4-3-1.5-6.3-1-3.2-1.9-5.5-2-5.1m309.2 7.7c0 4.1.2 5.8.4 3.7.2-2 .2-5.4 0-7.5-.2-2-.4-.3-.4 3.8m343.9 2.7c-1.2 3.7-1.9 6.9-1.7 7.1s1.3-2.6 2.4-6.4c1.2-3.7 1.9-6.9 1.7-7.1s-1.3 2.6-2.4 6.4m10.5 5.5c-1.4 4.5-2.4 8.4-2.2 8.6s1.5-3.3 3-7.8c1.4-4.6 2.4-8.5 2.2-8.7-.3-.2-1.6 3.3-3 7.9M317.6 727c1 4.1 10.2 27.8 11.9 30.7 2 3.4 1.9 3.2-5-14.7-6.2-16.1-7.9-20.1-6.9-16m295.5 3.8c0 1.8.8 9 1.8 16 1.1 7 2.9 20.6 4.2 30.1 1.2 9.6 2.4 17 2.7 16.3.2-.7-1.1-11.9-2.8-25-4.6-34.1-5.7-41.1-5.9-37.4m10 1.7c0 2.7.8 19.2 1.9 36.5s2.4 39.4 3 49c1.2 19.7 1.7 24 1.8 16 0-3-1.4-28.2-3.2-56-1.9-27.8-3.4-48.3-3.5-45.5m-293-2.2c-.2 1.7 2.9 7.8 5.6 11.2 5.7 7.2 19 14.6 25.7 14.4 1.2 0-.8-.8-4.4-1.7-10.2-2.7-21-11.5-24.9-20.2-1.1-2.5-2-4.1-2-3.7m427.1 21c-.2 21.2.4 24.4 5.1 29.5 2.1 2.3 7.2 5.3 12.2 7.2 4.8 1.8 2.5.2-3.9-2.8-4.9-2.3-7.1-4.1-9.3-7.4-2.8-4.3-2.8-4.4-3.4-25.3l-.5-21zm-187.7-12.1c-4.9 11.1-5.7 13.3-4.9 12.6 1.1-1.1 8.5-18 8.1-18.5-.2-.2-1.7 2.5-3.2 5.9m319.6-2.7c-.1.5.6 4.4 1.5 8.5s1.9 13.3 2.3 20.5c.8 12.5.8 12.6.9 4 .1-5-.5-13.3-1.3-18.5-1.4-8.9-3.2-16.8-3.4-14.5M401.4 748c0 6.3.1 8.9.3 5.7.2-3.1.2-8.3 0-11.5-.2-3.1-.3-.5-.3 5.8m-6.7-8.4c-1.5.8-6 2.4-10 3.4s-6.2 1.9-5.1 1.9c3.1.1 14.5-3.5 16.9-5.3 2.6-2 1.8-1.9-1.8 0m561.3 9.6c-16.1 38.2-35.1 67.7-64.3 99.6-18.2 20-35.1 34.6-57.2 49.4-8.2 5.5-15.2 10.3-15.5 10.6-1.6 1.6 6.2-3.2 18-11.2 24.9-16.8 47.4-37.6 69.6-64.4 13-15.7 22.3-29.2 32.4-47.2 9.4-16.8 22.8-45.5 21.7-46.7-.2-.2-2.3 4.3-4.7 9.9m29.6-3.1c-2.2 6.7-1.5 7.4.8.8 1-2.7 1.6-5.2 1.3-5.5-.2-.3-1.2 1.8-2.1 4.7m-674.5-3.5c-.2 2.6 15.9 37.4 23 49.6 9.9 17.1 27.1 42 36.4 52.8 13 14.9 35.4 36.8 48 46.9 10.9 8.7 24.5 18.6 24.5 17.7 0-.2-3.3-2.8-7.2-5.7-28.8-20.8-56.9-48.4-76.5-74.9-16.5-22.4-28.9-43.6-39.8-68.5-3.6-8.3-7-15.9-7.5-17s-.9-1.5-.9-.9m658.4 5.1c-1 2.7-3.8 9-6.2 14.2s-4.1 9.6-3.8 9.9c.4.5 3.3-5.7 9.1-19.7 2-4.5 3.3-8.5 3.1-8.7-.2-.3-1.2 1.7-2.2 4.3m-580.3 2.9c-3.5 1.9-5.9 3.4-5.3 3.4 1.6 0 10.8-4.8 11.6-6 .8-1.3 1.1-1.4-6.3 2.6m10.5 13.3c-.7 5.8-4.6 12.9-9.2 16.9-2.2 1.9-3 3-1.9 2.4 2.7-1.4 7.9-7.3 9.9-11.2 1.5-2.9 3.2-12 2.3-12-.3 0-.8 1.8-1.1 3.9"/><path d="M331 761.4c0 1.6 12.8 25.3 19.1 35.4 7.6 12.1 18.4 27.4 26.3 37.2 8 10 29.9 32.3 41.1 41.9 22.1 19 50.7 37.6 78 50.7 14.6 6.9 36.2 15.5 38.7 15.3.7 0 0-.5-1.7-1.1-31.6-11-69.9-31.1-94.7-49.8-43.7-33.1-74.5-69.6-100.9-119.5-3.2-6.1-5.9-10.6-5.9-10.1m529 .9c0 .4 1.1 3.3 2.4 6.5 1.3 3.1 2.9 7.4 3.6 9.5.6 2.1 1.4 3.6 1.6 3.4.3-.2-.8-4.1-2.5-8.5-2.8-7.8-5-12.5-5.1-10.9m-437 3.2c-.1 4.6 3.6 11.8 8 15.8 4.9 4.3 11.3 7.7 14.5 7.6 1.1 0 .2-.6-2.1-1.3-5-1.6-12.9-6.9-15-10.1-.9-1.4-2.4-5.1-3.4-8.2-1.1-3.2-1.9-4.9-2-3.8m-116 2.6c0 1 5.1 11.9 5.6 11.9.2 0-.2-1.5-1-3.3-1.7-4.2-4.5-9.4-4.6-8.6m646.6 14.2c-2.6 5.1-4.4 8.7-3.8 8.2 1.4-1.4 9.5-16.5 9.1-17-.2-.2-2.6 3.8-5.3 8.8m17.5-1.1c-3.5 7-4 8.8-1.1 4 2.2-3.5 5.1-10.2 4.5-10.2-.2 0-1.7 2.8-3.4 6.2m-79-.1c-.2 4.8-4.9 21.7-8.5 30.6-1.9 4.8-3.4 8.9-3.2 9.1.2.1 2-3.5 4-8.2 4-9.3 9-28.5 8.3-31.9-.4-1.9-.4-1.9-.6.4M314 783.5c0 .9 6 12.5 6.5 12.5.2 0 .1-.8-.3-1.8-4.1-9.1-6.2-12.7-6.2-10.7m79.8 9.2c10.6.2 27.7.2 38 0 10.3-.1 1.6-.2-19.3-.2s-29.3.1-18.7.2m327 0c11.7.2 30.6.2 42 0 11.4-.1 1.8-.2-21.3-.2s-32.4.1-20.7.2m224.6 4c-20.9 36.1-55 74.9-87 99-6.6 5-9.6 7.7-6.1 5.7 8.3-4.9 33.9-27.6 46.3-41 19.2-20.8 39.1-47.4 48.2-64.2 3.1-5.7 2.1-5.3-1.4.5m-322.8 4.8c.6 7.6 2.2 16 2.2 11.5 0-1.4-.6-6.1-1.3-10.5l-1.4-8zm-298.2 2.2c1.4 2.8 3.1 5.5 3.8 5.9s-.1-1.5-1.6-4.2c-4-6.9-5.3-7.9-2.2-1.7m555.2 2c-1.6 9-1.6 9.9-.7 7.8 1-2.4 2.4-11.5 1.8-11.5-.3 0-.8 1.7-1.1 3.7m-3.9 16c-.8 3.2-1.4 5.9-1.2 6.1s1.1-2.1 2-5.3c.9-3.1 1.5-5.8 1.3-6.1-.3-.2-1.2 2.2-2.1 5.3m-36.1 87.6c-1.7 1.2-8.9 5.6-16 9.9-16.4 9.7-18.3 11-8.1 5.7 11.6-6.1 30.1-18.2 27.3-17.9-.2 0-1.6 1-3.2 2.3m-43.5 10.8c-11.8 6-21 10.9-20.5 10.9 1.4 0 38.4-18.5 40.9-20.4 1.1-.8 1.8-1.5 1.5-1.4-.3 0-10.1 5-21.9 10.9m-351.8-9.4c1 1.7 29.7 19 29.7 17.9 0-.3-2.1-1.7-4.7-3.2-4.6-2.6-17.5-10.6-23.1-14.2-1.4-.9-2.3-1.2-1.9-.5m30.7 18.8c0 .7 20.1 10.7 20.6 10.3.2-.2-4.4-2.7-10.1-5.6-5.8-2.8-10.5-5-10.5-4.7"/><path d="M799.2 932.7c-4 2-7.1 3.7-6.8 4 .5.5 14.6-6.5 14.6-7.2 0-.6.7-.9-7.8 3.2m-54.2 8.8c-5.2 1.8-9 3.4-8.4 3.4 1.2.1 18.5-5.6 19.2-6.4 1-1-1.4-.3-10.8 3m-248-1.2c0 .7 22.1 10 22.6 9.4.2-.2-4.2-2.3-9.8-4.6-5.7-2.3-10.9-4.5-11.5-4.8-.7-.3-1.3-.3-1.3 0m66.5 10.3c2.8.7 5.7 1.3 6.5 1.3s-.7-.7-3.5-1.5c-2.7-.7-5.7-1.3-6.5-1.3s.8.7 3.5 1.5m-42.4-.2c.8.8 24 8.6 25.4 8.5.5 0-4.2-1.8-10.5-4-14.5-4.9-15.6-5.3-14.9-4.5m229.4 2.6c-4.4 1.6-7.5 2.9-6.9 2.9 1.2.1 15.5-4.6 16.2-5.4 1-1-1.3-.3-9.3 2.5m-174 .5c2.7.8 7.5 1.6 10.5 1.9l5.5.5-6.5-1.3c-3.6-.7-8.3-1.6-10.5-1.9-3.5-.6-3.4-.5 1 .8m20 3.5c4 .9 11.2 1.3 10.4.6-.2-.2-3.5-.6-7.4-.9-5.4-.4-6.1-.4-3 .3m14.3 1.7c1.7.2 4.7.2 6.5 0 1.7-.2.3-.4-3.3-.4s-5 .2-3.2.4m18.5 1c4.8.2 12.5.2 17 0 4.5-.1.6-.3-8.8-.3-9.3 0-13 .2-8.2.3m-66.2 3.6c.7.9 15.9 4 16.5 3.4.3-.2-2.4-1-5.8-1.6-3.5-.7-7.4-1.5-8.8-1.8s-2.2-.3-1.9 0m196.6 6.9c-3.2 1.1-5.7 2.2-5.4 2.4.2.2 3.5-.7 7.3-2 3.8-1.4 6.2-2.4 5.4-2.4s-4.1.9-7.3 2m-139.4 1.5c3.7.2 9.7.2 13.5 0 3.7-.2.6-.3-6.8-.3s-10.5.1-6.7.3m27 0c3.1.2 8.3.2 11.5 0 3.1-.2.5-.3-5.8-.3s-8.9.1-5.7.3m-69.8 13.9c8.8 1.6 11.6 1.6 5-.1-2.7-.7-6.6-1.3-8.5-1.3-2.3 0-1.1.5 3.5 1.4m10.6 1.8c.2.2 3.6.6 7.4.9 4.4.4 5.9.3 4-.2-3-.9-12.2-1.4-11.4-.7M668 990c-4.1.6-4.2.7-1 .8 1.9 0 5.3-.3 7.5-.7 3.3-.7 3.5-.9 1-.8-1.6 0-5 .3-7.5.7"/></g><path fill="#2a2a00" d="M755.3 582c0 4.7.2 6.6.4 4.2.2-2.3.2-6.1 0-8.5-.2-2.3-.4-.4-.4 4.3m0 16.5c0 4.4.2 6.1.4 3.7.2-2.3.2-5.9 0-8-.2-2-.4-.1-.4 4.3m-32.1 69.8c.1 6.9.6 12.3 1 12.1 1.1-.7.7-23.3-.4-24-.6-.4-.8 4.1-.6 11.9m33.1 69.7c0 4.7.2 6.6.4 4.2.2-2.3.2-6.1 0-8.5-.2-2.3-.4-.4-.4 4.3"/><g fill="#ff0" stroke-width="0"><path d="M613.5 260.5c-75.2 7.6-139.9 34.3-196.5 81.4-15.1 12.6-36.9 35.1-50.5 52.1-41.2 51.7-69.3 123.3-75.5 192.5-1.7 17.9-1.4 54.6.4 70.5 5.8 49.6 20.5 94.1 45.1 136.9 7.6 13 7 12.1 13.4 21.6 51.1 75.4 132.3 129.8 222.6 148.9 25 5.3 33.6 6.1 67.5 6.1 23.6 0 33.3-.4 42.7-1.8 41.9-6 80-18 118.5-37.3 29.5-14.8 60.9-36.7 82.8-57.8 49-47.3 82.2-103.6 99-168.1 7-27 9.5-43.3 11-72.4 3.5-66.1-16.2-143.2-51.8-202.1-45.3-75.1-118.4-132.1-201.2-157-41.5-12.5-88-17.4-127.5-13.5m53 8.6c17.5 1.5 38.3 4.6 52 7.9 60.9 14.4 120.4 48.2 165.1 93.6 54.3 55.2 87 123.8 98.6 206.4 2 14.8 1.7 67.2-.5 82.5-7.6 51.5-22.3 93.2-48 136-23.5 39.3-61.2 78.8-99.2 104-51.1 33.9-111 54.6-172.3 59.6-76.2 6.2-160-18.8-225.2-67.4-52.4-39.1-92.3-91.6-114.9-151.4-25.4-67.4-29.5-135.5-12.5-207.2 3-12.5 10.8-37.1 15.9-50.1 9.3-23.8 28.1-57.4 43.1-77.2 38.5-50.8 89.5-90 146.9-113 46.9-18.9 103.8-27.8 151-23.7"/><path d="M576.1 347.5c-5.1 4.4-7.4 12.1-7.9 27-.4 13.5 0 18.8 4.3 47 1.4 9.3 3.2 21.7 3.9 27.5.8 5.8 2.3 17 3.5 25 3 21.3 12.1 88.2 13.8 101.8.3 2.3.9 4.1 1.2 4 .4-.2 4.6-2.8 9.4-5.8 8.7-5.4 8.8-5.5 8.2-9-1.1-7.6-3.8-53.9-6-104.5-1.7-37-4.7-82.4-5.9-88.8-2-10.3-5.3-18.4-9.3-22.8-3.1-3.4-4.1-3.9-7.8-3.9-3.2 0-5.2.7-7.4 2.5m11.4 13.8c4.1 5.8 7.9 25.4 8 40.4 0 9.8-.3 11.5-2.1 14-2.9 3.8-6 4.1-9.4.8-8.3-7.9-11.2-52.8-3.8-58 2.4-1.6 4.8-.7 7.3 2.8M794 374.7c-1.9 1-4.4 3.4-5.5 5.4-1.9 3.6-1.9 3.8 0 7.8 1 2.3 2.9 5.3 4.2 6.7 2.6 2.8 2.5 7.2-.2 9.4-.7.6-7.5 2.3-15.1 3.8-10.8 2.1-13.9 3-13.7 4.2.1.8.9 4 1.8 7 3.6 12.8.8 26.2-7.1 33.5-7.1 6.8-21.5 13.3-33 15.1-3.7.5-4.3.9-3 1.6 2.4 1.4 15.4-.5 25.4-3.7 11.2-3.5 17.5-8.7 22.2-18 3.4-6.8 3.5-7.1 3.4-18.7-.2-13.3-1-12.1 9.6-13.8 8.4-1.3 24-1.3 31.6.1 9.9 1.7 9.2.8 8.6 11-.9 15.7 4.6 28.6 15.4 36 4.3 2.9 32.5 14.9 35.2 14.9.6 0 1.2.4 1.2 1 0 .5-.4 1-.8 1-1.9 0-9.8 7.9-13.4 13.4-11.9 18.4-9.8 43.3 4.1 49.2 2.6 1.2 5.7 1.5 11.2 1.1l7.7-.5-3.2 5.7c-1.8 3.1-5.2 8.7-7.6 12.6-9.5 15.4-20.2 35.5-23.9 45-6.7 17.5-7.6 22.1-7.6 40.5 0 15.4.2 17.1 2.8 24.7 2.8 8.6 5.6 14.3 11.3 22.9 6 9.2 14.3 25.8 18.4 36.9 4.1 11 8.3 29.3 9.5 41.5 1.3 12.5-2.1 35.8-7.4 51.7-1.5 4.6-2.6 8.3-2.3 8.3.2 0 2.3-4.2 4.7-9.3 6.1-12.8 11.1-28.3 13.1-40.6 4.3-25.7-3.6-57.4-21.9-87.5-15.6-25.8-18.2-33-18.1-51.6.1-24.4 8.6-47.1 31.8-85 21.6-35.2 24.7-43.1 22.4-57.5-1.8-11.5-6.3-18.4-16.3-24.9-9.4-6.2-12.2-7.6-21.8-11.1-19.4-7-28.4-12.9-33.2-21.7-2.4-4.4-3-6.7-3.2-13.8-.2-5.1.2-10.5 1-13.5l1.3-4.9-13.5-2.8c-10.7-2.1-14-3.1-15.3-4.9-1.8-2.2-2.4-6.5-1-7.1 1.8-.8 7.2-8.5 7.2-10.3-.1-3.3-3.7-10.3-5.7-10.8-5.6-1.6-8-1.6-11.3 0m96.1 111.5c5.4 3 8.2 9.1 8.7 18.6.5 8.2-1 13.5-6 21.3-8 12.9-23.7 14.4-29.6 2.9-2.1-4-2.3-5.6-2-14 .4-8.2.8-10.3 3.5-15.5 3.3-6.3 5.4-8.7 11.7-12.9 4.7-3.2 8.6-3.3 13.7-.4"/><path d="M608.1 408.3c.3.4 5.9 1.8 12.5 3.2 17.5 3.8 26 6.7 41.8 14.7 11.3 5.6 18.3 10.7 25.3 18.1 19.2 20.6 21.4 46.2 5.8 68.2-7.6 10.7-29.4 28.4-52.5 42.8-32.4 20.1-43.9 27.5-43.5 27.9.3.3-.1.5-.8.5-1.3 0-11.3 6.3-32.7 20.6-18.1 12.1-30.1 21.2-29.2 22.2.4.5.2.5-.4.2-1.2-.7-15.4 10.9-15.4 12.5 0 .5-.4.7-.8.4-.5-.3-3.5 2-6.7 4.9-3.2 3-6.2 5.6-6.6 5.7-.5.2-12.9 11.6-27.6 25.4s-32.5 30.2-39.5 36.3c-12.2 10.8-12.7 11.4-12.1 14.4 1.3 7 1.5 7.1 5.5 4 2-1.5 12.3-8.9 22.8-16.3s28-19.9 38.8-27.7c45.7-33 82.6-58.4 127.9-88.3 48.4-31.8 58.7-39.6 69.5-52.7 11.7-14.2 14.1-18.7 5.5-10.4-8.8 8.5-18.9 15.3-30.2 20.5-7.3 3.3-7.1 3.1 8-8.2 27.8-20.7 40-40.4 39.8-64.2-.1-16.3-4.9-28.1-16.4-40.4-14.4-15.5-35.2-26-61.9-31.5-10.4-2.2-28-4-26.9-2.8"/><path d="M553.6 415c-16.5 4.4-31 14.8-36 25.9-3.6 8.2-4.2 14.2-2.2 23.4 4.1 18.5 20.7 34.3 45.1 42.9 6.7 2.4 16.6 4.5 15.4 3.3-.4-.3-5.1-2.3-10.6-4.4-18.1-6.8-35-20.4-40.7-32.5-11.6-25-.9-44 31.9-56.2 2.8-1 6.1-2.4 7.5-3.1l2.5-1.3-3 .1c-1.6 0-6.1.9-9.9 1.9m-176.1 53.7c12.9 4.7 20.7 11 24.7 19.8 2.1 4.6 2.3 6.7 2.7 27.5.5 28.5-1.8 216.7-2.9 235.7-.9 15.9-2.8 21.9-9.1 28.2-3.7 3.7-13.4 8.7-18.9 9.8-8.3 1.5 2.4 2.1 40 2.2 36.5.1 43.3-.4 32.6-2.4-9-1.6-18.2-8.3-21.2-15.4-5.4-12.8-6.4-36.8-6.4-161.1V508.9l16.8 27.8c29.3 48.4 55.9 91.7 66.9 109 .6.9 3.1-.8 8.3-5.3 4.1-3.6 10.3-8.6 13.8-11.1 3.4-2.6 6.2-5 6.2-5.3 0-.4-1.7-2.4-3.7-4.6-2.1-2.1-3.2-3.5-2.5-3 .7.4-.7-2.3-3.2-6.1-2.5-3.7-8.6-13.3-13.6-21.3s-11-17.4-13.3-21c-2.2-3.6-8.3-13.3-13.5-21.5-5.2-8.3-10.2-15.6-11.1-16.3-.8-.7-1.6-1.8-1.6-2.5s-3-6-6.6-11.7c-3.6-5.8-10.1-16.1-14.3-23-4.3-6.9-8.2-12.7-8.7-12.8-.5-.2-.7-.7-.4-1.2.2-.4-.5-1.9-1.8-3.2-1.2-1.4-2.3-3.1-2.5-3.7-.1-.7-1-2.3-1.8-3.7l-1.6-2.4-30.2.1h-30.1zM755 473c0 .6-1.8.7-4.4.4-2.5-.4-5.3-.3-6.3.1s-3.4.8-5.3 1c-4.1.4-13.2 3.7-17.7 6.5-3.5 2.1-4.1 4.4-1.9 6.9 1.7 2 3.6 7.7 3.6 10.7 0 1.3.3 2.4.8 2.4.4 0 .6 26.8.4 59.5-.1 32.7-.5 59.5-.8 59.5s-4.3-1.1-8.8-2.4c-17.6-5.3-36.4-7-51.4-4.6-8.4 1.4-23 6.4-32.4 11.1L623 628l.1 5.8c.2 10.6.1 10.6 9.9 6 15.7-7.3 23.4-9 42-9.5 15.8-.4 17-.3 28 2.5 14.9 3.9 20.8 6.4 21.5 9.4.3 1.3.5 30.7.3 65.3-.3 61.6-.3 63.1-2.4 67.6-3.3 7.1-14.6 14.8-21.9 14.9-2.3 0-2.7.3-1.5 1 2.1 1.3 83 1.3 83 0 0-.6-1-1-2.1-1-1.2 0-5.5-1.6-9.6-3.5-10-4.9-12.4-8.5-13.4-20.3-.4-4.8-.8-31.8-.8-60l-.1-51.4 4.8 2.7c21.9 12.6 60.5 51.5 81.8 82.6 8.4 12.2 17.9 29.2 22.5 40.2 1.7 4.2 3.3 7.6 3.5 7.4 1.1-1-14.2-38.6-17.6-43.2-.4-.6-2.6-4.6-5-9-5.1-9.6-14.3-23.2-25.4-37.5-10.7-13.9-41.6-44.5-54.3-54l-10.1-7.4-.7-13.1c-.3-7.1-.5-38.9-.3-70.5l.3-57.5 3-5.9c3.2-6.4 9-11.9 14.1-13.6 1.9-.7 3.4-1.5 3.4-1.9s1.4-.5 3.1-.3c2.2.3 3 .1 2.5-.7-.9-1.4-26.6-1.6-26.6-.1m43.8 38.1c-2.6 1.5-2.3 6.5.3 8 5.1 2.7 9.4-3.6 5.1-7.4-2.1-1.9-3-2-5.4-.6"/><path d="M798.6 544.6c-3.3 3.2-1.3 7.4 3.6 7.4 3.6 0 4.9-4.1 2.3-7-2.2-2.4-3.8-2.5-5.9-.4m-.2 31.9c-1 .8-1.4 1.5-.9 1.5.6 0 .4.4-.2.8-1 .6-.9 1.3.3 3.1 2.3 3.3 7.8 2.6 8.2-1 .3-2.7-2-5.9-4.2-5.9-.7 0-2.1.7-3.2 1.5m.3 32.3c-3 3.3-1.5 7.2 2.8 7.2 4.2 0 5.9-4.4 2.9-7.4-2-2.1-3.7-2-5.7.2m-186.6.5c-.7.9-3.7 3.1-6.7 4.8-2.9 1.6-5.6 3.4-5.9 3.9-.6.9 1 13.2 5 39.5 1.4 9.3 3 20.4 3.5 24.5 1.8 14.7 7.1 55.8 9.5 74 1.4 10.2 3.5 25.2 4.6 33.5 2.5 19.4 6.1 42.6 6.5 42.2.2-.1-.4-9.5-1.2-20.7-.7-11.3-2.3-35.6-3.4-54-4.4-75.3-6.4-104.8-9.4-136.9-.9-10.7-1.3-12.2-2.5-10.8m186.6 31.5c-2.2 2.4-2.1 4.5.1 6.5 2.3 2.1 3.6 2.1 5.6.1 2.2-2.1 2-6.1-.3-7.4-2.7-1.4-3.5-1.3-5.4.8m-262.2 20.8c-6 4.2-12 8.5-13.2 9.6l-2.2 2.1 3.4 6.6c1.9 3.6 5.1 9.5 7.1 13.1 6.2 11 20.8 38 26.4 48.9l5.4 10.4 1.7-3.9c7.7-18 27.9-60.9 31.2-66.3 3.5-5.6 4.1-7.4 4-11.6-.1-5.7-2-16.4-2.2-12.5-.1 1.8-.4 2.1-1 1.2-.9-1.4-7.8 9-16.1 24.3-2.4 4.4-4.7 8.2-5 8.5-.4.3-1 1.4-1.4 2.5-.6 1.7-1.1 1.4-3.7-2.8-1.6-2.6-2.9-4.9-2.9-5.2 0-.7-18.1-29.8-19.4-31.2-.8-1-3.6.5-12.1 6.3m-158 12.5c-30.3 5.3-51.7 26.6-49.1 48.9.8 6.2 4.3 14.7 7.8 18.4 4.6 4.9 13.4 10.7 18.8 12.3 11.5 3.5 27.1 1.2 36.7-5.3 3.8-2.6 5.1-4.4 5.2-7.7.1-1.6-.1-1.6-2.2-.2-1.3.8-6.1 2.4-10.8 3.6-9.6 2.4-19.1 2.2-27.4-.7-6.9-2.4-14.6-10.3-17-17.3-2.5-7.6-1.7-18.3 1.8-24.3 3.5-6.1 12.9-14.6 20.6-18.6 5.8-3.2 26.7-9.2 31.8-9.2 1.2 0 2.5-.5 2.8-1 .9-1.5-6.6-1.1-19 1.1"/></g><path fill="#aa0" d="M755.3 614.5c0 3.8.2 5.3.4 3.2.2-2 .2-5.2 0-7-.2-1.7-.4-.1-.4 3.8"/></svg>